<svg width="32" height="32" viewBox="0 0 32 32" fill="none" xmlns="http://www.w3.org/2000/svg">
<path d="M20 29.3332V23.9998C20.1855 22.3296 19.7066 20.6533 18.6667 19.3332C22.6667 19.3332 26.6667 16.6665 26.6667 11.9998C26.7733 10.3332 26.3067 8.69317 25.3333 7.33317C25.7067 5.79984 25.7067 4.19984 25.3333 2.6665C25.3333 2.6665 24 2.6665 21.3333 4.6665C17.8133 3.99984 14.1867 3.99984 10.6667 4.6665C8.00001 2.6665 6.66668 2.6665 6.66668 2.6665C6.26668 4.19984 6.26668 5.79984 6.66668 7.33317C5.69584 8.68768 5.22464 10.3369 5.33334 11.9998C5.33334 16.6665 9.33334 19.3332 13.3333 19.3332C12.8133 19.9865 12.4267 20.7332 12.2 21.5332C11.9733 22.3332 11.9067 23.1732 12 23.9998V29.3332" stroke="#F3F4F6" stroke-width="2" stroke-linecap="round" stroke-linejoin="round"/>
<path d="M12 24.0002C5.98663 26.6668 5.33329 21.3335 2.66663 21.3335" stroke="#4B5563" stroke-width="2" stroke-linecap="round" stroke-linejoin="round"/>
</svg>
