<svg width="51" height="51" viewBox="0 0 51 51" fill="none" xmlns="http://www.w3.org/2000/svg">
<mask id="path-1-inside-1_3438_516" fill="white">
<path d="M14.1765 21.7143C8.08824 29.4286 4.93137 30.0714 2 31.3571L7.41176 41C8.76471 40.3571 11.8765 38.8143 13.5 37.7857C15.5294 36.5 17.5588 33.9286 18.9118 32.6429C20.2647 31.3571 22.2941 27.5 22.2941 26.8571L23.6471 24.9286L25 23.6429C24.3235 33.2857 29.0588 35.2143 29.0588 35.2143C29.0588 35.2143 36.5 40.3571 43.9412 38.4286L47.9203 30.1907C44.5124 35.2142 37.8213 35.1993 33.7941 33.2857C28.3824 31.3571 28.6078 27.0714 29.0588 24.2857C31.0882 20.4286 35.1471 19.7857 37.8529 21.7143C37.8529 15.2857 30.4118 14 28.3824 14C25 14 20.9412 14 14.1765 21.7143Z"/>
</mask>
<path d="M14.1765 21.7143C8.08824 29.4286 4.93137 30.0714 2 31.3571L7.41176 41C8.76471 40.3571 11.8765 38.8143 13.5 37.7857C15.5294 36.5 17.5588 33.9286 18.9118 32.6429C20.2647 31.3571 22.2941 27.5 22.2941 26.8571L23.6471 24.9286L25 23.6429C24.3235 33.2857 29.0588 35.2143 29.0588 35.2143C29.0588 35.2143 36.5 40.3571 43.9412 38.4286L47.9203 30.1907C44.5124 35.2142 37.8213 35.1993 33.7941 33.2857C28.3824 31.3571 28.6078 27.0714 29.0588 24.2857C31.0882 20.4286 35.1471 19.7857 37.8529 21.7143C37.8529 15.2857 30.4118 14 28.3824 14C25 14 20.9412 14 14.1765 21.7143Z" fill="white"/>
<path d="M47.9203 30.1907L171.227 113.836C171.646 113.217 172.068 112.586 172.492 111.942L48 30.0714L-76.492 -51.7989C-76.1211 -52.3628 -75.7523 -52.9147 -75.3862 -53.4544L47.9203 30.1907ZM2 31.3571L-117.697 -241.547L-418.771 -109.494L-257.872 177.202L2 31.3571ZM14.1765 21.7143L-209.88 -174.762L-214.967 -168.96L-219.748 -162.903L14.1765 21.7143ZM28.3824 14V-284H28.3819L28.3824 14ZM37.8529 21.7143L-135.106 264.385L335.853 600.053V21.7143H37.8529ZM29.0588 24.2857L-234.665 -114.471L-257.332 -71.3911L-265.111 -23.3377L29.0588 24.2857ZM33.7941 33.2857L161.687 -235.875L148.051 -242.354L133.829 -247.422L33.7941 33.2857ZM47.9203 30.1907L316.256 159.805L-198.686 -137.109L47.9203 30.1907ZM43.9412 38.4286L118.705 326.898L252.266 292.282L312.277 168.043L43.9412 38.4286ZM29.0588 35.2143L198.489 -209.933L171.663 -228.474L141.462 -240.774L29.0588 35.2143ZM25 23.6429L322.269 44.4971L375.97 -720.986L-180.283 -192.374L25 23.6429ZM23.6471 24.9286L-181.635 -191.088L-203.214 -170.582L-220.309 -146.213L23.6471 24.9286ZM22.2941 26.8571L-221.662 -144.284L-275.706 -67.2467V26.8571H22.2941ZM13.5 37.7857L172.983 289.518L172.983 289.518L13.5 37.7857ZM7.41176 41L-252.46 186.845L-116.188 429.659L135.305 310.16L7.41176 41ZM2 31.3571L121.697 304.261C97.6052 314.828 141.804 297.292 172.914 276.423C208.228 252.735 232.491 226.111 248.101 206.331L14.1765 21.7143L-219.748 -162.903C-210.226 -174.968 -190.586 -197.413 -159.105 -218.531C-131.829 -236.828 -90.6738 -253.399 -117.697 -241.547L2 31.3571ZM14.1765 21.7143L238.232 218.191C223.404 235.1 191.176 267.232 138.494 289.483C111.585 300.848 85.6734 306.934 62.7415 309.808C42.6817 312.322 25.8701 312 28.3828 312L28.3824 14L28.3819 -284C22.9488 -284 -31.5898 -285.66 -93.398 -259.555C-150.646 -235.375 -188.287 -199.386 -209.88 -174.762L14.1765 21.7143ZM28.3824 14V312C-9.39532 312 -57.0718 304.616 -106.119 278.514C-134.076 263.636 -173.254 236.775 -206.114 190.613C-241.448 140.976 -260.147 81.8116 -260.147 21.7143H37.8529H335.853C335.853 -125.324 239.388 -212.758 173.876 -247.621C120.601 -275.973 68.1894 -284 28.3824 -284V14ZM37.8529 21.7143L210.812 -220.956C55.5168 -331.641 -151.821 -271.928 -234.665 -114.471L29.0588 24.2857L292.783 163.043C257.206 230.661 192.066 288.279 105.5 309.927C22.1858 330.763 -65.7029 313.851 -135.106 264.385L37.8529 21.7143ZM29.0588 24.2857L-265.111 -23.3377C-266.755 -13.1814 -278.295 50.2517 -252.958 124.894C-220.505 220.498 -146.757 285.3 -66.2408 313.994L33.7941 33.2857L133.829 -247.422C166.334 -235.839 204.271 -215.613 239.039 -181.62C274.492 -146.957 297.896 -106.501 311.414 -66.6801C335.624 4.64117 324.422 64.5385 323.229 71.9091L29.0588 24.2857ZM33.7941 33.2857L-94.0989 302.446C-40.3995 327.962 21.8449 338.431 84.7059 329.13C153.172 319 237.301 281.844 294.527 197.49L47.9203 30.1907L-198.686 -137.109C-144.868 -216.439 -65.7892 -251.091 -2.52708 -260.451C55.1297 -268.982 112.015 -259.477 161.687 -235.875L33.7941 33.2857ZM47.9203 30.1907L-220.415 -99.4238L-224.395 -91.1859L43.9412 38.4286L312.277 168.043L316.256 159.805L47.9203 30.1907ZM43.9412 38.4286L-30.8229 -250.04C49.2213 -270.786 113.013 -250.965 138.189 -241.54C153.553 -235.788 165.956 -229.567 175.024 -224.531C179.732 -221.916 184.008 -219.36 187.837 -216.956C189.764 -215.746 191.611 -214.554 193.378 -213.387C194.263 -212.803 195.131 -212.223 195.981 -211.648C196.407 -211.36 196.829 -211.073 197.246 -210.788C197.455 -210.645 197.663 -210.502 197.87 -210.36C197.974 -210.289 198.077 -210.218 198.18 -210.146C198.232 -210.111 198.309 -210.058 198.335 -210.04C198.412 -209.987 198.489 -209.933 29.0588 35.2143C-140.371 280.362 -140.294 280.415 -140.217 280.469C-140.191 280.486 -140.114 280.54 -140.062 280.576C-139.958 280.647 -139.855 280.718 -139.75 280.79C-139.541 280.934 -139.33 281.078 -139.118 281.224C-138.693 281.514 -138.26 281.808 -137.821 282.106C-136.941 282.7 -136.031 283.309 -135.09 283.93C-133.21 285.172 -131.196 286.473 -129.051 287.819C-124.786 290.496 -119.87 293.44 -114.348 296.506C-103.653 302.446 -88.9248 309.832 -70.7697 316.629C-40.0126 328.143 31.2199 349.572 118.705 326.898L43.9412 38.4286ZM29.0588 35.2143C141.462 -240.774 141.705 -240.675 141.947 -240.576C142.028 -240.543 142.271 -240.443 142.432 -240.377C142.756 -240.243 143.081 -240.109 143.406 -239.974C144.056 -239.704 144.709 -239.43 145.364 -239.152C146.674 -238.597 147.993 -238.027 149.321 -237.441C151.977 -236.269 154.671 -235.035 157.397 -233.733C162.848 -231.13 168.447 -228.253 174.149 -225.068C185.551 -218.701 197.433 -211.071 209.376 -201.936C233.617 -183.395 257.028 -159.457 276.47 -129.61C317.437 -66.721 325.537 -2.07805 322.269 44.4971L25 23.6429L-272.269 2.78866C-276.213 59.0066 -266.084 129.435 -222.919 195.7C-202.377 227.234 -177.825 252.256 -152.717 271.461C-140.341 280.927 -128.094 288.783 -116.436 295.293C-110.606 298.549 -104.906 301.478 -99.3858 304.113C-96.6246 305.432 -93.9044 306.678 -91.2306 307.858C-89.8935 308.448 -88.5675 309.021 -87.2531 309.578C-86.5959 309.857 -85.9416 310.131 -85.2901 310.402C-84.9644 310.537 -84.6394 310.672 -84.3152 310.805C-84.1532 310.872 -83.9102 310.971 -83.8293 311.005C-83.587 311.104 -83.3446 311.202 29.0588 35.2143ZM25 23.6429L-180.283 -192.374L-181.635 -191.088L23.6471 24.9286L228.93 240.945L230.283 239.659L25 23.6429ZM23.6471 24.9286L-220.309 -146.213L-221.662 -144.284L22.2941 26.8571L266.25 197.999L267.603 196.07L23.6471 24.9286ZM22.2941 26.8571H-275.706C-275.706 -6.89633 -269.826 -32.7573 -267.64 -41.9454C-264.737 -54.1535 -261.622 -63.7712 -259.678 -69.4389C-255.772 -80.8281 -251.992 -89.5368 -250.022 -93.9352C-245.779 -103.41 -241.769 -110.978 -238.761 -116.336C-235.642 -121.895 -231.241 -129.281 -225.408 -137.75C-221.619 -143.251 -208.276 -162.557 -186.371 -183.373L18.9118 32.6429L224.194 248.659C260.111 214.528 279.311 178.332 280.982 175.354C284.666 168.79 289.268 160.058 293.934 149.638C296.115 144.768 300.064 135.642 304.087 123.914C306.089 118.077 309.248 108.309 312.182 95.9733C314.398 86.6574 320.294 60.691 320.294 26.8571H22.2941ZM18.9118 32.6429L-186.371 -183.373C-190.778 -179.185 -194.208 -175.675 -196.106 -173.707C-198.059 -171.682 -199.613 -170.017 -200.141 -169.45C-202.258 -167.181 -199.851 -169.775 -198.021 -171.673C-195.71 -174.068 -190.397 -179.499 -183.064 -186.023C-176.085 -192.232 -163.456 -202.877 -145.983 -213.947L13.5 37.7857L172.983 289.518C191.47 277.806 205.115 266.357 213.087 259.264C221.414 251.856 227.699 245.461 230.94 242.101C233.7 239.239 236.995 235.681 235.703 237.066C235.587 237.191 234.43 238.434 232.854 240.067C231.334 241.643 228.264 244.792 224.194 248.659L18.9118 32.6429ZM13.5 37.7857L-145.983 -213.947C-139.403 -218.115 -134.222 -221.008 -132.18 -222.138C-129.631 -223.547 -127.647 -224.586 -126.52 -225.169C-124.428 -226.251 -122.531 -227.186 -120.481 -228.161L7.41176 41L135.305 310.16C135.7 309.973 154.147 301.451 172.983 289.518L13.5 37.7857ZM7.41176 41L267.283 -104.845L261.872 -114.488L2 31.3571L-257.872 177.202L-252.46 186.845L7.41176 41Z" fill="white" mask="url(#path-1-inside-1_3438_516)"/>
<path d="M25.5 2C38.4787 2 49 12.5213 49 25.5C49 38.4787 38.4787 49 25.5 49C12.5213 49 2 38.4787 2 25.5C2 12.5213 12.5213 2 25.5 2Z" stroke="white" stroke-width="4"/>
</svg>
